<?xml version="1.0" encoding="iso-8859-1"?>
<!-- Generator: Adobe Illustrator 19.0.0, SVG Export Plug-In . SVG Version: 6.00 Build 0)  -->
<svg version="1.1" id="Layer_1" xmlns="http://www.w3.org/2000/svg" xmlns:xlink="http://www.w3.org/1999/xlink" x="0px" y="0px"
	 viewBox="0 0 512.005 512.005" style="enable-background:new 0 0 512.005 512.005;" xml:space="preserve">
<path style="fill:#B3C9CE;" d="M256.001,80.012c-3.686,0-6.673-2.987-6.673-6.673V42.536c0-3.686,2.987-6.673,6.673-6.673
	c3.686,0,6.673,2.987,6.673,6.673v30.803C262.674,77.024,259.687,80.012,256.001,80.012z"/>
<path style="fill:#DCEBEF;" d="M153.183,173.215c0-56.785,46.033-102.818,102.818-102.818l0,0
	c56.785,0,102.818,46.033,102.818,102.818H153.183z"/>
<g>
	<path style="fill:#B3C9CE;" d="M276.02,72.361c-6.476-1.279-13.167-1.963-20.019-1.963l0,0
		c-56.785,0-102.818,46.033-102.818,102.818h40.037C193.22,123.283,228.821,81.678,276.02,72.361z"/>
	<rect x="153.185" y="173.217" style="fill:#B3C9CE;" width="205.634" height="41.855"/>
</g>
<rect x="153.185" y="173.217" style="fill:#A0B6BA;" width="39.732" height="41.855"/>
<g>
	<path style="fill:#515C6D;" d="M183.813,224.17c-5.025,0-9.099-4.074-9.099-9.099v-19.573c0-5.025,4.074-9.099,9.099-9.099
		c5.025,0,9.099,4.074,9.099,9.099v19.573C192.912,220.096,188.838,224.17,183.813,224.17z"/>
	<path style="fill:#515C6D;" d="M328.19,224.17c-5.025,0-9.099-4.074-9.099-9.099v-19.573c0-5.025,4.074-9.099,9.099-9.099
		s9.099,4.074,9.099,9.099v19.573C337.289,220.096,333.215,224.17,328.19,224.17z"/>
	<path style="fill:#515C6D;" d="M299.314,224.17c-5.025,0-9.099-4.074-9.099-9.099v-19.573c0-5.025,4.074-9.099,9.099-9.099
		s9.099,4.074,9.099,9.099v19.573C308.414,220.096,304.34,224.17,299.314,224.17z"/>
	<path style="fill:#515C6D;" d="M270.439,224.17c-5.025,0-9.099-4.074-9.099-9.099v-19.573c0-5.025,4.074-9.099,9.099-9.099
		s9.099,4.074,9.099,9.099v19.573C279.538,220.096,275.464,224.17,270.439,224.17z"/>
	<path style="fill:#515C6D;" d="M212.688,224.17c-5.025,0-9.099-4.074-9.099-9.099v-19.573c0-5.025,4.074-9.099,9.099-9.099
		c5.025,0,9.099,4.074,9.099,9.099v19.573C221.787,220.096,217.713,224.17,212.688,224.17z"/>
	<path style="fill:#515C6D;" d="M241.564,224.17c-5.025,0-9.099-4.074-9.099-9.099v-19.573c0-5.025,4.074-9.099,9.099-9.099
		c5.025,0,9.099,4.074,9.099,9.099v19.573C250.663,220.096,246.589,224.17,241.564,224.17z"/>
</g>
<g>
	<polyline style="fill:#DCEBEF;" points="347.431,293.322 486.203,293.322 486.203,466.198 25.797,466.198 25.797,293.322 
		165.443,293.322 	"/>
	<polyline style="fill:#DCEBEF;" points="347.431,293.322 379.436,293.322 379.436,215.067 132.564,215.067 132.564,293.322 
		165.443,293.322 	"/>
</g>
<g>
	<rect x="175.145" y="317.424" style="fill:#B3C9CE;" width="27.905" height="148.769"/>
	<rect x="309.816" y="317.424" style="fill:#B3C9CE;" width="27.905" height="148.769"/>
	<rect x="242.481" y="317.424" style="fill:#B3C9CE;" width="27.905" height="148.769"/>
</g>
<g>
	<rect x="175.145" y="314.997" style="fill:#A0B6BA;" width="27.905" height="32.531"/>
	<rect x="309.816" y="314.997" style="fill:#A0B6BA;" width="27.905" height="32.531"/>
	<rect x="242.481" y="314.997" style="fill:#A0B6BA;" width="27.905" height="32.531"/>
</g>
<g>
	<path style="fill:#515C6D;" d="M90.828,321.503L90.828,321.503c-9.381,0-16.986,7.605-16.986,16.986v25.478h33.971v-25.478
		C107.813,329.108,100.209,321.503,90.828,321.503z"/>
	<path style="fill:#515C6D;" d="M90.828,390.658L90.828,390.658c-9.381,0-16.986,7.605-16.986,16.986v25.478h33.971v-25.478
		C107.813,398.263,100.209,390.658,90.828,390.658z"/>
	<path style="fill:#515C6D;" d="M422.046,321.503L422.046,321.503c-9.381,0-16.986,7.605-16.986,16.986v25.478h33.971v-25.478
		C439.031,329.108,431.427,321.503,422.046,321.503z"/>
	<path style="fill:#515C6D;" d="M422.046,390.658L422.046,390.658c-9.381,0-16.986,7.605-16.986,16.986v25.478h33.971v-25.478
		C439.031,398.263,431.427,390.658,422.046,390.658z"/>
</g>
<g>
	<path style="fill:#A0B6BA;" d="M113.88,370.033H67.776v-31.545c0-12.711,10.341-23.052,23.052-23.052s23.052,10.341,23.052,23.052
		V370.033z M79.908,357.901h21.839v-19.412c0-6.02-4.899-10.919-10.919-10.919s-10.919,4.899-10.919,10.919V357.901z"/>
	<path style="fill:#A0B6BA;" d="M113.88,439.188H67.776v-31.545c0-12.711,10.341-23.052,23.052-23.052s23.052,10.341,23.052,23.052
		V439.188z M79.908,427.056h21.839v-19.412c0-6.02-4.899-10.919-10.919-10.919s-10.919,4.899-10.919,10.919V427.056z"/>
	<path style="fill:#A0B6BA;" d="M445.098,370.033h-46.104v-31.545c0-12.711,10.341-23.052,23.052-23.052
		s23.052,10.341,23.052,23.052V370.033z M411.127,357.901h21.839v-19.412c0-6.02-4.899-10.919-10.919-10.919
		s-10.919,4.899-10.919,10.919V357.901z"/>
	<path style="fill:#A0B6BA;" d="M445.098,439.188h-46.104v-31.545c0-12.711,10.341-23.052,23.052-23.052
		s23.052,10.341,23.052,23.052V439.188z M411.127,427.056h21.839v-19.412c0-6.02-4.899-10.919-10.919-10.919
		s-10.919,4.899-10.919,10.919V427.056z"/>
</g>
<rect y="457.943" style="fill:#515C6D;" width="512.005" height="18.199"/>
<polygon style="fill:#B3C9CE;" points="347.431,317.429 165.443,317.429 165.443,282.244 256.437,255.553 347.431,282.244 "/>
<g>
</g>
<g>
</g>
<g>
</g>
<g>
</g>
<g>
</g>
<g>
</g>
<g>
</g>
<g>
</g>
<g>
</g>
<g>
</g>
<g>
</g>
<g>
</g>
<g>
</g>
<g>
</g>
<g>
</g>
</svg>
